<svg id="Layer_1" data-name="Layer 1" xmlns="http://www.w3.org/2000/svg" xmlns:xlink="http://www.w3.org/1999/xlink" viewBox="0 0 255.12 255.12"><defs><linearGradient id="linear-gradient" x1="-1272.91" y1="26.16" x2="-1146.76" y2="188.18" gradientTransform="translate(-1039.55 276.12) rotate(180)" gradientUnits="userSpaceOnUse"><stop offset="0" stop-color="#6f60aa"/><stop offset="0.03" stop-color="#745fa9"/><stop offset="0.13" stop-color="#7f5da8"/><stop offset="0.26" stop-color="#855ca7"/><stop offset="0.51" stop-color="#875ca6"/><stop offset="1" stop-color="#875ca6"/></linearGradient><linearGradient id="linear-gradient-2" x1="86.34" y1="56.54" x2="169.13" y2="266.73" gradientTransform="matrix(1, 0, 0, -1, 0, 276.12)" gradientUnits="userSpaceOnUse"><stop offset="0" stop-color="#6f5faa"/><stop offset="0.03" stop-color="#745fa9"/><stop offset="0.13" stop-color="#7f5da7"/><stop offset="0.26" stop-color="#855ca7"/><stop offset="0.51" stop-color="#875ca6"/><stop offset="0.74" stop-color="#7e5da8"/><stop offset="1" stop-color="#6f5faa"/></linearGradient></defs><path d="M51.36,28.56l161.3-3.5a20.51,20.51,0,0,1,20.7,20.8l-.8,144.8a21,21,0,0,1-20.9,20.9H203l-.2,35.6c0,5.3-6.4,7.9-11.7,2l-32.9-37.6-107-.4c-10.2,0-18.5-8.8-18.5-19.6v-143C32.76,37.66,41.06,28.66,51.36,28.56Z" style="fill:#615faa"/><path d="M46,207.26l160.8.4a21,21,0,0,0,20.9-20.9l.8-145A20.47,20.47,0,0,0,207.66,21l-161.6,3.4c-10.3.1-18.6,9.1-18.6,20.1v143.2C27.46,198.56,35.76,207.36,46,207.26Z" style="fill:url(#linear-gradient)"/><path d="M211.46,27l-168.8,3.1c-5.5.1-9.9,4.9-9.9,10.7v150.4c0,5.8,4.4,10.5,9.9,10.5H148l39.9,45.5a5.77,5.77,0,0,0,10.1-3.8l.2-41.6h12.5a11.14,11.14,0,0,0,11.1-11.1l.8-152.6A11,11,0,0,0,211.46,27Z" style="fill:url(#linear-gradient-2)"/><path d="M156.26,115.76a12.05,12.05,0,0,0,12.5,11.8c6.9,0,12.6-5.3,12.6-11.9s-5.6-11.9-12.5-11.9S156.36,109.26,156.26,115.76Z" style="fill:#fff"/><path d="M113.76,115.86c0,6.5,5.5,11.8,12.4,11.8a12.24,12.24,0,0,0,12.5-11.8c0-6.5-5.5-11.8-12.4-11.8A12.24,12.24,0,0,0,113.76,115.86Z" style="fill:#fff"/><path d="M71.66,116c0,6.5,5.5,11.7,12.3,11.7a12.06,12.06,0,0,0,12.3-11.8A11.92,11.92,0,0,0,84,104.16,12.06,12.06,0,0,0,71.66,116Z" style="fill:#fff"/></svg>