<svg id="Layer_1" data-name="Layer 1" xmlns="http://www.w3.org/2000/svg" xmlns:xlink="http://www.w3.org/1999/xlink" viewBox="0 0 255.12 255.12"><defs><linearGradient id="linear-gradient" x1="139.41" y1="48.8" x2="106.36" y2="177.61" gradientTransform="matrix(1, 0, 0, -1, 0, 255.22)" gradientUnits="userSpaceOnUse"><stop offset="0" stop-color="#382a6a"/><stop offset="1" stop-color="#382a6a"/></linearGradient><linearGradient id="linear-gradient-2" x1="-1883.47" y1="127.81" x2="-1677.27" y2="127.81" gradientTransform="translate(-1649.86 255.22) rotate(180)" gradientUnits="userSpaceOnUse"><stop offset="0" stop-color="#ef4e92"/><stop offset="1" stop-color="#d064a6"/></linearGradient><linearGradient id="linear-gradient-3" x1="-1856.21" y1="182.02" x2="-1677.25" y2="-53.67" gradientTransform="translate(-1649.86 255.22) rotate(180)" gradientUnits="userSpaceOnUse"><stop offset="0" stop-color="#d7549f"/><stop offset="1" stop-color="#ee3c7a"/></linearGradient></defs><path d="M227.61,125.11v-.7c0-.6-.1-1.1-.1-1.7a2.2,2.2,0,0,0-.1-.8c-.1-.6-.1-1.2-.2-1.7a1.27,1.27,0,0,0-.1-.6c-.1-.8-.2-1.5-.3-2.3,0-.2-.1-.3-.1-.5l-.3-1.8c-.1-.2-.1-.5-.2-.7a9.36,9.36,0,0,0-.4-1.6c-.1-.2-.1-.5-.2-.7-.2-.7-.4-1.3-.6-2,0-.1,0-.2-.1-.2-.2-.7-.5-1.5-.7-2.2-.1-.2-.1-.4-.2-.6-.2-.5-.4-1.1-.6-1.6-.1-.2-.2-.5-.3-.7a11.11,11.11,0,0,0-.7-1.6,1.42,1.42,0,0,1-.2-.6,20,20,0,0,0-1-2.1c0-.1-.1-.1-.1-.2-.3-.6-.6-1.3-.9-1.9l-.3-.6a10.93,10.93,0,0,1-.8-1.5l-.3-.6a9.91,9.91,0,0,0-1.1-1.7c-.1-.1-.1-.2-.2-.3-.4-.7-.9-1.4-1.3-2-.1-.1-.2-.3-.3-.4-.4-.5-.7-1.1-1.1-1.6-.1-.2-.3-.4-.4-.6-.4-.5-.7-1-1.1-1.5a1.76,1.76,0,0,0-.4-.5c-1-1.3-2.1-2.5-3.2-3.8l-.4-.4a17.88,17.88,0,0,0-1.3-1.4c-.1-.2-.3-.3-.4-.5l-1.5-1.5-.2-.2c-.6-.6-1.2-1.2-1.9-1.8l-.2-.2c-.6-.5-1.1-1-1.7-1.5-.2-.1-.3-.3-.5-.4L200,74c-.1-.1-.3-.2-.4-.3-1.4-1.1-2.8-2.2-4.2-3.2a1.38,1.38,0,0,0-.4-.3,20.28,20.28,0,0,1-1.8-1.3c-.2-.1-.3-.2-.5-.3a21.41,21.41,0,0,1-1.9-1.3c-.1-.1-.2-.1-.3-.2-1.5-1-3.1-1.9-4.7-2.8-.2-.1-.3-.2-.5-.3-.7-.4-1.3-.7-2-1.1-.2-.1-.3-.2-.5-.3a126.84,126.84,0,0,0-58.2-13.7c-56.9,0-103.1,35.1-103.1,78.5,0,14.9,5.5,28.9,14.9,40.7l-9.9,26.4a3.44,3.44,0,0,0,3.8,4.6c3.3-.6,7.7-1.4,12.5-2.3a.37.37,0,0,0,.3-.1c.6-.1,1.2-.2,1.7-.3.3-.1.6-.1.9-.2.5-.1,1-.2,1.4-.3s.5-.1.8-.1c.7-.1,1.5-.3,2.2-.4.3-.1.6-.1.9-.2a6.75,6.75,0,0,1,1.4-.2c.3-.1.7-.1,1-.2a5.85,5.85,0,0,1,1.3-.2c.3-.1.6-.1,1-.2l1.5-.3c.2,0,.4-.1.7-.1a11.8,11.8,0,0,0,2-.4c.3-.1.6-.1.9-.2a5.85,5.85,0,0,1,1.3-.2c.3,0,.5-.1.8-.1a6.88,6.88,0,0,1,1.3-.2c.2,0,.5-.1.7-.1.7-.1,1.3-.2,1.9-.3,16.5,8.5,36.3,13.4,57.6,13.4,56.9,0,103.1-35.1,103.1-78.5A6,6,0,0,0,227.61,125.11Z" style="fill:url(#linear-gradient)"/><path d="M42.31,168.11c-9.5-11.9-14.9-25.8-14.9-40.7,0-43.4,46.2-78.5,103.1-78.5s103.1,35.1,103.1,78.5-46.2,78.5-103.1,78.5c-21.3,0-41.2-4.9-57.6-13.4-10.9,1.9-27.8,5-36.7,6.6a3.41,3.41,0,0,1-3.8-4.6Z" style="fill:url(#linear-gradient-2)"/><g style="opacity:0.33000001311302185"><path d="M74,144c23.1-9.7,48.5,10.8,64.4-3.5s-1.3-42.9,14.1-63.3c7.3-9.7,19.6-14.3,33.7-15.9,28.5,14,47.4,38.3,47.4,66.1,0,43.4-46.2,78.5-103.1,78.5-21.3,0-41.2-4.9-57.6-13.4-8.6,1.5-20.9,3.7-30.1,5.4C49.51,162.81,62,149.11,74,144Z" style="fill:url(#linear-gradient-3)"/></g><path d="M108.21,125.31a12.77,12.77,0,0,1-12,13.9,14.18,14.18,0,0,1-15.4-11.9A12.85,12.85,0,0,1,93.21,113C100.81,112.61,107.51,118.11,108.21,125.31Z" style="fill:#fff"/><path d="M148.81,125.31a12.77,12.77,0,0,1-12,13.9,14.18,14.18,0,0,1-15.4-11.9,12.85,12.85,0,0,1,12.4-14.3C141.51,112.61,148.11,118.11,148.81,125.31Z" style="fill:#fff"/><path d="M189.51,125.31a12.77,12.77,0,0,1-12,13.9,14.18,14.18,0,0,1-15.4-11.9,12.85,12.85,0,0,1,12.4-14.3C182.11,112.61,188.81,118.11,189.51,125.31Z" style="fill:#fff"/></svg>