<svg xmlns="http://www.w3.org/2000/svg" xmlns:xlink="http://www.w3.org/1999/xlink" viewBox="0 0 93.32 99.61"><defs><style>.cls-1{fill:none;}.cls-2{isolation:isolate;}.cls-3{clip-path:url(#clip-path);}.cls-4{fill:url(#linear-gradient);}.cls-5{mix-blend-mode:soft-light;}.cls-6{fill:#fff;}.cls-16,.cls-22,.cls-7,.cls-9{opacity:0.3;}.cls-15,.cls-16,.cls-22,.cls-7,.cls-9{mix-blend-mode:multiply;}.cls-7{fill:url(#linear-gradient-2);}.cls-8{fill:url(#linear-gradient-3);}.cls-10{fill:url(#linear-gradient-4);}.cls-11{fill:url(#linear-gradient-5);}.cls-12{fill:url(#linear-gradient-6);}.cls-13{fill:url(#linear-gradient-7);}.cls-14{fill:url(#linear-gradient-8);}.cls-16{fill:url(#linear-gradient-9);}.cls-17{fill:url(#linear-gradient-10);}.cls-18{fill:url(#linear-gradient-11);}.cls-19,.cls-22{fill:#d8dee8;}.cls-20{fill:url(#linear-gradient-12);}.cls-21{fill:url(#linear-gradient-13);}</style><clipPath id="clip-path"><circle class="cls-1" cx="48.34" cy="54.67" r="44.41"/></clipPath><linearGradient id="linear-gradient" x1="8422.08" y1="44.46" x2="8476.19" y2="139.47" gradientTransform="matrix(-1, 0, 0, 1, 8476.23, 0)" gradientUnits="userSpaceOnUse"><stop offset="0" stop-color="#ffc444"/><stop offset="1" stop-color="#f36f56"/></linearGradient><linearGradient id="linear-gradient-2" x1="8383.05" y1="54.67" x2="8472.72" y2="54.67" xlink:href="#linear-gradient"/><linearGradient id="linear-gradient-3" x1="-238.65" y1="-288.79" x2="-227.29" y2="-267.71" gradientTransform="translate(244.11 322.05)" gradientUnits="userSpaceOnUse"><stop offset="0" stop-color="#aa80f9"/><stop offset="1" stop-color="#6165d7"/></linearGradient><linearGradient id="linear-gradient-4" x1="-241.94" y1="-287.51" x2="-230.79" y2="-265.15" gradientTransform="translate(294.1 271.52) rotate(-11.08)" xlink:href="#linear-gradient-3"/><linearGradient id="linear-gradient-5" x1="-206.92" y1="-256.83" x2="-195.56" y2="-235.76" gradientTransform="matrix(1, 0, 0, 1, 249.65, 315.36)" xlink:href="#linear-gradient-3"/><linearGradient id="linear-gradient-6" x1="-210.21" y1="-255.55" x2="-199.06" y2="-233.19" gradientTransform="translate(294.1 271.52) rotate(-11.08)" xlink:href="#linear-gradient-3"/><linearGradient id="linear-gradient-7" x1="-237.13" y1="700.77" x2="-225.77" y2="721.85" gradientTransform="translate(775.01 265.39) rotate(90)" xlink:href="#linear-gradient-3"/><linearGradient id="linear-gradient-8" x1="-240.42" y1="702.05" x2="-229.27" y2="724.41" gradientTransform="translate(418.25 -625.65) rotate(9.7)" xlink:href="#linear-gradient-3"/><linearGradient id="linear-gradient-9" x1="7.51" y1="16.31" x2="50.53" y2="16.31" gradientUnits="userSpaceOnUse"><stop offset="0" stop-color="#444b8c"/><stop offset="1" stop-color="#26264f"/></linearGradient><linearGradient id="linear-gradient-10" x1="10.21" y1="15.32" x2="49.57" y2="15.32" gradientTransform="matrix(1, 0, 0, 1, 0, 0)" xlink:href="#linear-gradient-3"/><linearGradient id="linear-gradient-11" x1="16.22" y1="15.93" x2="44.27" y2="15.93" xlink:href="#linear-gradient-9"/><linearGradient id="linear-gradient-12" x1="8.91" y1="15.95" x2="11.38" y2="15.95" xlink:href="#linear-gradient-9"/><linearGradient id="linear-gradient-13" x1="48.34" y1="15.88" x2="50.83" y2="15.88" xlink:href="#linear-gradient-9"/></defs><g class="cls-2"><g id="Layer_2" data-name="Layer 2"><g id="Layer_1-2" data-name="Layer 1"><g class="cls-3"><path class="cls-4" d="M3.39,54.71a44.59,44.59,0,0,0,8.06,25.61s.09.06.09.09h0A44.51,44.51,0,0,0,48.4,99.61a26.4,26.4,0,0,0,3.67-.23h0v.08c.6,0,1.2-.08,1.8-.15.21,0,.42,0,.63-.06l.56-.07.48-.07.11,0q.59-.09,1.17-.21h0a45.1,45.1,0,0,0,34.5-57.49c-.21-.66-.46-1.31-.63-2h0c-.51-1.08-.85-2.13-1.31-3.17-.19-.42-.4-.83-.6-1.24A44.17,44.17,0,0,0,85,28.63c-.13-.19-.27-.37-.4-.55-.53-.73-1.09-1.43-1.67-2.12-.86-1-1.77-2-2.72-3A45.32,45.32,0,0,0,72,16.43q-1.39-.86-2.85-1.62a44.45,44.45,0,0,0-7.4-3.05A45.19,45.19,0,0,0,6.88,37.08c-.65,1.52-1.09,3.08-1.77,4.68h0s.08,0,.07,0A45.12,45.12,0,0,0,3.39,54.71Z"/><g class="cls-5"><polygon class="cls-6" points="52.07 99.53 52.07 99.53 52.07 99.53 52.07 99.53 52.07 99.53"/><path class="cls-6" d="M38.54,69.87c1,1.36,4,3.11,1.93,6.54s.14,4.06,1.52,3.74,5.7-.49,5,1.47-1.95,2.7-.37,3.46,2.25,2.72,3.87,5.43,5.42.37,4.29,3.1-2,2.46-1.9,4.36a2.37,2.37,0,0,1-.79,1.56c.6,0,1.21-.11,1.81-.18l.63-.08.56-.08.48-.08.06,0c.39-.06.59-.13,1.1-.2h0c.34-.32.12-.67.07-1-.5-3.51,4.34-5.92,5.15-8.37s0-3.92.19-6-.47-4.71.69-6.42,5.87-2.27,6.77-5.71-1.2-8.56-2-9.43,3.89-4.85,6.13-5,1.35-4.66,5.14-4,10.64-1.46,9.23-3.74c-1.16-1.88-3.12-6,3.27-7.88-.21-.66-.46-1.31-.63-2h0c-.51-1.08-.85-2.13-1.31-3.17-.19-.42-.4-.83-.6-1.24A45.1,45.1,0,0,0,85,28.63c-.13-.19-.27-.37-.4-.55-.54-.73-1.09-1.43-1.67-2.12-.86-1-1.77-2-2.72-3A45.32,45.32,0,0,0,72,16.43c-1.27.89-2.71,1.44-4,.76-3.06-1.71-1-2,.21-2a1.56,1.56,0,0,0,.9-.34,44.45,44.45,0,0,0-7.4-3.05c.19,1.73,2.54,4.5.81,4.16-2-.38-2.83-5.81-4.31-4s1.64,4.19-1.3,2.81-3.34-4.4-6.63-2.92-3,3.27-3.92,3.1-3.88,1.82-2.09,3.46,3.48-.45,6.19-1.08,2.65,1.59,3.9,2.1,7.4-2.47,8.91.21,2.17,4.51-.09,4.44-2.4-.65-2.22,1S60.73,28,58.68,26.4s-1.58-3.1-3.17-2.35-1.79.07-3.48-1.16-3.93-1.36-4.51,1.4.41,3.39,3.39,3.53,3.32-.8,4.27,1.69,4.89,5.7,8.36,7,4.81,3.27,4.73,5.91,1.21,5.43,2.08,3.25,3.32-5.86,5.81-3.4,6.84,6.81,2,7.61-2.29-3.68-4.72-2.79S75,50,73.4,50.71s-2.3.39-2.29,2.59-.53,4.35-2.5,3.42-4.49-5.26-7.33-2.7-2.64,2.23-4.14,1.48S54.7,57,54.09,58s-3,0-5,3-2.71,3.57-4.92,2.48-3.12-.28-3.7,1.25-1.94,0-2.59,2.06S37.59,68.51,38.54,69.87Z"/><path class="cls-6" d="M31,33.16c1.57-3.37-6.21-3-7.58-2.73s-4.63-2.31-5-3.49-1.12-.62-3.58-.66-.29-.58,2.42-1.47.39-1,2.88-2.95c1.07-.86.74-1.59,0-2.14A45.12,45.12,0,0,0,7,37.08a.66.66,0,0,1,.23,0c1.72,0,2.1-3.82,3-4.56s0,2.09-.24,3.25.47.19,1.33,1.26,2.42,1.09,2.56-.52a4.67,4.67,0,0,1,3.57-3.91,8.78,8.78,0,0,1,6.13.59C25.39,33.86,29.38,36.5,31,33.16Z"/><path class="cls-6" d="M11.43,80.41c-.16-1.16-.41-2.35.07-2.79,1.18-1.09,1.43-4.06,1-5.56S9,70.64,11.1,68.13s4.1-5.49,3.19-7.19-.63-1.83,1.07-1.82,2.44.09,4.13-1.42,4,3.6,10.38-.52S32.61,46,30.22,46,25,44.74,27,41.82s-1.1-3.36-2.59-2.69S20.23,38,17.52,37.22s-2.6,3.63-4.1,4.51-4.36.19-5.84-1.23c-1-1-1.28.17-2.33,1.29a45.11,45.11,0,0,0,6.18,38.62Z"/><path class="cls-6" d="M22.81,27.55s-2-.9-1.26-2.34,1.84-5.86,2.66-4.47-.39,4.12-.12,5.29S24.36,27.82,22.81,27.55Z"/><path class="cls-6" d="M24.79,26.2c0-.46-.26-2.35,1.22-2.29,0,0,2.15.89.89,2.42S24.76,26.67,24.79,26.2Z"/></g><path class="cls-7" d="M3.51,54.63a44.54,44.54,0,0,0,8,25.61.16.16,0,0,1,0,.09h0A44.83,44.83,0,0,0,48.46,99.5a27.29,27.29,0,0,0,3.73-.27h0v.11c.6,0,1.2,0,1.8-.13.21,0,.42,0,.63,0l.56-.07.48-.06.11,0,1.17-.2h0A45,45,0,0,0,93.17,59.51,39,39,0,0,1,63.83,84.85h0a3,3,0,0,1-1,.19l-.09,0-.42.07-.48.06-.55.07c-.51.06-1,.18-1.55.22v0h0c-1.06,0-2.11.08-3.19.08A38.76,38.76,0,0,1,24.67,68.94s0-.06-.06-.09A38.82,38.82,0,0,1,19.3,35.57s0,0,0,0h0a27.13,27.13,0,0,1,1.44-4A39,39,0,0,1,44.28,9.85a44.75,44.75,0,0,0-24.08,9.8A45.26,45.26,0,0,0,7,37C6.37,38.52,6,40.08,5.28,41.69h0l0,0A44.78,44.78,0,0,0,3.51,54.63Z"/></g><ellipse class="cls-8" cx="8.53" cy="38.95" rx="8.58" ry="6.83" transform="matrix(0.98, -0.19, 0.19, 0.98, -7.32, 2.36)"/><path class="cls-6" d="M7.67,34.57a3.07,3.07,0,0,0-2.43,3.6c.22,1.08,2,3.34,3.18,4.8a1,1,0,0,0,1.72-.34c.57-1.81,1.34-4.56,1.13-5.64A3.06,3.06,0,0,0,7.67,34.57Zm.9,4.63a1.65,1.65,0,1,1,1.31-1.94A1.65,1.65,0,0,1,8.57,39.2Z"/><g class="cls-9"><path class="cls-10" d="M11.55,43.55c-1.4-1.78-.74-3.83-2.36-4.84S6,39.24,3.8,38.57A5.18,5.18,0,0,1,1,36.2,6,6,0,0,0,.1,40.6c.73,3.71,5.09,6,9.74,5.06a10.68,10.68,0,0,0,2.94-1A4.42,4.42,0,0,1,11.55,43.55Z"/></g><ellipse class="cls-11" cx="45.81" cy="64.22" rx="8.58" ry="6.83" transform="matrix(0.98, -0.19, 0.19, 0.98, -11.48, 10)"/><path class="cls-6" d="M45,59.83a3.06,3.06,0,0,0-2.42,3.6c.21,1.08,2,3.34,3.17,4.8a1,1,0,0,0,1.72-.33c.57-1.81,1.34-4.57,1.13-5.65A3.07,3.07,0,0,0,45,59.83Zm.91,4.63a1.65,1.65,0,1,1,1.3-1.93A1.65,1.65,0,0,1,45.86,64.46Z"/><g class="cls-9"><path class="cls-12" d="M48.83,68.82C47.43,67,48.09,65,46.47,64s-3.23.54-5.39-.14a5.14,5.14,0,0,1-2.77-2.37,6,6,0,0,0-.93,4.41c.73,3.7,5.09,6,9.74,5a10.35,10.35,0,0,0,2.94-1A4.59,4.59,0,0,1,48.83,68.82Z"/></g><ellipse class="cls-13" cx="68.53" cy="31.31" rx="6.83" ry="8.58" transform="translate(26.12 93.59) rotate(-80.3)"/><path class="cls-6" d="M69.28,26.9a3.08,3.08,0,0,0-3.54,2.51c-.19,1.09.65,3.82,1.27,5.62a1,1,0,0,0,1.72.29c1.18-1.49,2.88-3.79,3.06-4.87A3.08,3.08,0,0,0,69.28,26.9Zm-.79,4.66a1.66,1.66,0,0,1-1.35-1.91,1.65,1.65,0,1,1,1.35,1.91Z"/><g class="cls-9"><path class="cls-14" d="M69.73,36.68c-.68-2.16.67-3.84-.49-5.37s-3.21-.64-5-2a5.11,5.11,0,0,1-1.75-3.19,5.93,5.93,0,0,0-2.43,3.79c-.64,3.72,2.64,7.38,7.31,8.18a10.52,10.52,0,0,0,3.11.07A4.48,4.48,0,0,1,69.73,36.68Z"/></g><g class="cls-15"><path class="cls-16" d="M49.24,11.7h0a1,1,0,0,0-.74.39h0C46.18,5.58,38.54.73,29.37.64a26.52,26.52,0,0,0-5.4.52h0C17.12,2.57,11.66,6.71,9.72,12a1.11,1.11,0,0,0-.81-.4c-.75,0-1.4,1-1.4,2.17v6.31c0,1.2.62,2.17,1.37,2.17h0A1.33,1.33,0,0,0,10,21.39C12.77,27.66,20.44,32.09,29.37,32a25.28,25.28,0,0,0,7.08-1.09c5.55-1.71,9.88-5.27,11.76-9.68h0a1.23,1.23,0,0,0,1,.85h0c.71,0,1.29-.95,1.29-2.12V13.81C50.53,12.65,50,11.7,49.24,11.7Z"/></g><path class="cls-17" d="M49.57,15.29a12.11,12.11,0,0,1-1,4.81c-1.83,4.32-6.07,7.8-11.49,9.47a24.62,24.62,0,0,1-6.92,1.06c-8.73.11-16.23-4.22-18.91-10.35a12.23,12.23,0,0,1-1-4.94,12.38,12.38,0,0,1,.75-4.2C12.87,5.93,18.19,1.88,24.89.51A24.57,24.57,0,0,1,30.17,0c9,.09,16.43,4.82,18.69,11.19A12.07,12.07,0,0,1,49.57,15.29Z"/><path class="cls-6" d="M39.27,23.52l-17.7.12A6.54,6.54,0,0,1,15,17.06V13.18a3,3,0,0,1,3-3l24.79.05a2.91,2.91,0,0,1,2.87,2.94V17A6.49,6.49,0,0,1,39.27,23.52Z"/><path class="cls-6" d="M31.43,26.8l-2.53,0a6.33,6.33,0,0,1-6.34-6.38h0A6.39,6.39,0,0,1,28.9,14h2.53a6.3,6.3,0,0,1,6.26,6.36h0A6.38,6.38,0,0,1,31.43,26.8Z"/><path class="cls-18" d="M39.74,20.53l-18.85.1a4.67,4.67,0,0,1-4.67-4.69V14.22a3,3,0,0,1,3-3l22.21,0a2.91,2.91,0,0,1,2.87,2.94v1.69A4.6,4.6,0,0,1,39.74,20.53Z"/><path class="cls-19" d="M26.45,16.46a1.51,1.51,0,0,0,.29-.87,2.18,2.18,0,0,0-2.4-1.85,2.18,2.18,0,0,0-2.4,1.86,1.54,1.54,0,0,0,.29.87Z"/><path class="cls-19" d="M38.4,16.43a1.57,1.57,0,0,0,.28-.86,2.15,2.15,0,0,0-2.35-1.84A2.16,2.16,0,0,0,34,15.58a1.58,1.58,0,0,0,.29.86Z"/><path class="cls-20" d="M11.38,12.86V19a3.1,3.1,0,0,1-.19,1.26c-.24.53-.58.87-1,.87-.73,0-1.27-.94-1.27-2.11V12.86c0-1.17.57-2.12,1.3-2.12a1,1,0,0,1,.76.4c.06.06,0,.14.1.22A2.9,2.9,0,0,1,11.38,12.86Z"/><path class="cls-21" d="M49.59,20.94h0c-.69,0-1.25-.92-1.25-2.06v-6c0-1.15.56-2.07,1.25-2.07h0c.69,0,1.24.93,1.24,2.07v6C50.83,20,50.28,20.94,49.59,20.94Z"/><path class="cls-22" d="M31.57,26.8a29.1,29.1,0,0,0,5.52,2.77,24.62,24.62,0,0,1-6.92,1.06c-8.73.11-16.23-4.22-18.91-10.35a1.25,1.25,0,0,1-1,.87c-.73,0-1.3-.94-1.3-2.11V12.86c0-1.17.57-2.12,1.3-2.12a1,1,0,0,1,.76.4C12.87,5.93,18.2,1.88,24.89.51a14.4,14.4,0,0,1-.54,8.56c-.13.38-.24.76-.34,1.13s-.17.69-.23,1a14.1,14.1,0,0,0-.26,2.62,13.05,13.05,0,0,0,.26,2.61l0,.16a13.36,13.36,0,0,0,1.58,4,16.05,16.05,0,0,0,2.28,3A22.4,22.4,0,0,0,31.57,26.8Z"/></g></g></g></svg>