<?xml version="1.0" encoding="UTF-8"?>
<svg width="3166px" height="1134px" viewBox="0 0 3166 1134" version="1.1" xmlns="http://www.w3.org/2000/svg" xmlns:xlink="http://www.w3.org/1999/xlink">
    <!-- Generator: Sketch 57.1 (83088) - https://sketch.com -->
    <title>vieeye</title>
    <desc>Created with Sketch.</desc>
    <g id="Page-1" stroke="none" stroke-width="1" fill="none" fill-rule="evenodd">
        <g id="vieeye">
            <g id="vie" transform="translate(-0.000100, 0.002200)" fill="#020203">
                <path d="M5.68434189e-14,49.4519 L179.729,49.4519 L203.854,464.3989 C207.471,525.9139 207.471,576.5769 203.854,640.5069 L205.061,640.5069 C227.978,574.1649 242.454,531.9469 271.402,470.4299 L468.018,49.4519 L648.954,49.4519 L232.803,887.7849 L73.58,887.7849 L5.68434189e-14,49.4519 Z" id="Fill-1"></path>
                <path d="M720.1162,100.115 C720.1162,43.425 763.5412,0 816.6152,0 C873.3072,0 915.5262,44.631 915.5262,98.908 C915.5262,155.603 872.1012,199.028 817.8212,199.028 C761.1282,199.028 720.1162,154.397 720.1162,100.115 L720.1162,100.115 Z M673.0722,396.846 L612.7622,376.342 L635.6792,271.402 L867.2752,271.402 L735.7972,887.785 L569.3382,887.785 L673.0722,396.846 Z" id="Fill-4"></path>
                <path d="M1096.4404,536.7717 C1186.9074,536.7717 1278.5804,518.6767 1278.5804,436.6517 C1278.5804,393.2317 1259.2804,375.1357 1221.8874,375.1357 C1188.1134,375.1357 1157.9564,390.8187 1133.8334,434.2437 C1119.3574,458.3667 1106.0894,494.5537 1096.4404,536.7717 M909.4734,658.6017 C909.4734,551.2437 951.6914,422.1797 1010.7974,353.4257 C1068.6964,285.8737 1139.8634,255.7187 1231.5384,255.7187 C1363.0174,255.7187 1436.5964,324.4727 1436.5964,430.6247 C1436.5964,601.9067 1274.9614,648.9507 1078.3474,648.9507 L1078.3474,673.0737 C1078.3474,745.4507 1109.7084,773.1927 1167.6074,773.1927 C1239.9814,773.1927 1288.2314,746.6577 1332.8604,717.7047 L1366.6364,838.3287 C1317.1794,875.7217 1239.9814,903.4677 1153.1334,903.4677 C992.7044,903.4677 909.4734,814.2057 909.4734,658.6017" id="Fill-6"></path>
            </g>
            <g id="eye" transform="translate(1492.058300, 255.720900)" fill="#4EB9EA">
                <path d="M186.965,281.053 C277.434,281.053 369.109,262.958 369.109,180.933 C369.109,137.513 349.807,119.417 312.414,119.417 C278.64,119.417 248.486,135.1 224.358,178.525 C209.886,202.648 196.615,238.835 186.965,281.053 M1.13686838e-13,402.883 C1.13686838e-13,295.525 42.218,166.461 101.321,97.707 C159.223,30.155 230.39,0 322.065,0 C453.541,0 527.121,68.754 527.121,174.906 C527.121,346.188 365.489,393.232 168.873,393.232 L168.873,417.355 C168.873,489.732 200.235,517.474 258.132,517.474 C330.509,517.474 378.755,490.939 423.387,461.986 L457.16,582.61 C407.708,620.003 330.509,647.749 243.659,647.749 C83.23,647.749 1.13686838e-13,558.487 1.13686838e-13,402.883" id="Fill-8"></path>
                <path d="M505.3898,745.4519 C615.1568,726.1539 665.8158,699.6139 704.4188,632.0659 L671.8468,632.0659 L610.3318,15.6829 L786.4388,15.6829 L799.7088,320.8589 C800.9158,375.1369 802.1218,433.0379 798.5018,475.2569 L799.7088,475.2569 C812.9788,433.0379 828.6578,385.9939 856.4038,324.4779 L991.4988,15.6829 L1161.5798,15.6829 L851.5788,647.7489 C764.7288,817.8249 697.1808,858.8379 522.2748,878.1389 L505.3898,745.4519 Z" id="Fill-10"></path>
                <path d="M1332.845,281.053 C1423.314,281.053 1514.99,262.958 1514.99,180.933 C1514.99,137.513 1495.688,119.417 1458.294,119.417 C1424.521,119.417 1394.366,135.1 1370.239,178.525 C1355.766,202.648 1342.496,238.835 1332.845,281.053 M1145.88,402.883 C1145.88,295.525 1188.099,166.461 1247.206,97.707 C1305.103,30.155 1376.27,0 1467.946,0 C1599.422,0 1673.001,68.754 1673.001,174.906 C1673.001,346.188 1511.37,393.232 1314.754,393.232 L1314.754,417.355 C1314.754,489.732 1346.116,517.474 1404.012,517.474 C1476.39,517.474 1524.636,490.939 1569.267,461.986 L1603.041,582.61 C1553.588,620.003 1476.39,647.749 1389.54,647.749 C1229.111,647.749 1145.88,558.487 1145.88,402.883" id="Fill-12"></path>
            </g>
        </g>
    </g>
</svg>