<svg xmlns="http://www.w3.org/2000/svg" xmlns:xlink="http://www.w3.org/1999/xlink" viewBox="0 0 78.7 96.74"><defs><style>.cls-1{isolation:isolate;}.cls-2{fill:url(#linear-gradient);}.cls-3{fill:url(#linear-gradient-2);}.cls-4{fill:#fff;}.cls-5{fill:url(#linear-gradient-3);}.cls-6{fill:url(#linear-gradient-4);}.cls-7{fill:url(#linear-gradient-5);}.cls-8{fill:url(#linear-gradient-6);}.cls-9{fill:url(#linear-gradient-7);}.cls-10{fill:url(#linear-gradient-8);}.cls-11{fill:url(#linear-gradient-9);}.cls-12,.cls-21,.cls-30,.cls-33{opacity:0.3;mix-blend-mode:multiply;}.cls-12{fill:url(#linear-gradient-10);}.cls-13{fill:url(#linear-gradient-11);}.cls-14{fill:#26264f;}.cls-15{fill:url(#linear-gradient-12);}.cls-16{fill:url(#linear-gradient-13);}.cls-17{fill:url(#linear-gradient-14);}.cls-18{fill:url(#linear-gradient-15);}.cls-19{fill:url(#linear-gradient-16);}.cls-20{fill:url(#linear-gradient-17);}.cls-21{fill:url(#linear-gradient-18);}.cls-22{fill:url(#linear-gradient-19);}.cls-23{fill:url(#linear-gradient-20);}.cls-24{fill:url(#linear-gradient-21);}.cls-25{fill:url(#linear-gradient-22);}.cls-26{fill:url(#linear-gradient-23);}.cls-27{fill:url(#linear-gradient-24);}.cls-28{fill:url(#linear-gradient-25);}.cls-29,.cls-30{fill:url(#linear-gradient-26);}.cls-31{fill:url(#linear-gradient-28);}.cls-32{fill:url(#linear-gradient-29);}.cls-33{fill:url(#linear-gradient-30);}.cls-34{fill:url(#linear-gradient-31);}.cls-35{fill:url(#linear-gradient-32);}.cls-36{fill:url(#linear-gradient-33);}.cls-37{fill:url(#linear-gradient-34);}.cls-38{fill:url(#linear-gradient-35);}.cls-39{fill:url(#linear-gradient-36);}.cls-40{fill:url(#linear-gradient-37);}</style><linearGradient id="linear-gradient" x1="-3796" y1="-1.9" x2="-3783.37" y2="18.39" gradientTransform="matrix(-1, 0, 0, 1, -3727.87, 0)" gradientUnits="userSpaceOnUse"><stop offset="0" stop-color="#311944"/><stop offset="1" stop-color="#893976"/></linearGradient><linearGradient id="linear-gradient-2" x1="-3795.53" y1="-2.28" x2="-3782.9" y2="18.02" gradientTransform="matrix(-1, 0, 0, 1, -3727.87, 0)" gradientUnits="userSpaceOnUse"><stop offset="0" stop-color="#ffc444"/><stop offset="1" stop-color="#f36f56"/></linearGradient><linearGradient id="linear-gradient-3" x1="2490.25" y1="500.67" x2="2492.12" y2="502.33" gradientTransform="translate(-2465.23 -54.38) rotate(-8.05)" gradientUnits="userSpaceOnUse"><stop offset="0" stop-color="#444b8c"/><stop offset="1" stop-color="#26264f"/></linearGradient><linearGradient id="linear-gradient-4" x1="2028.29" y1="438.3" x2="2028.29" y2="435.04" gradientTransform="translate(-1931.36 -444.66) rotate(2.85)" xlink:href="#linear-gradient-2"/><linearGradient id="linear-gradient-5" x1="2490.44" y1="500.46" x2="2492.31" y2="502.12" xlink:href="#linear-gradient-3"/><linearGradient id="linear-gradient-6" x1="2667.48" y1="94.8" x2="2669.35" y2="96.47" gradientTransform="translate(-2609.08)" xlink:href="#linear-gradient-3"/><linearGradient id="linear-gradient-7" x1="2196.89" y1="-44.26" x2="2196.89" y2="-47.52" gradientTransform="translate(-2104.06 -283.12) rotate(11.1)" xlink:href="#linear-gradient-2"/><linearGradient id="linear-gradient-8" x1="2667.67" y1="94.59" x2="2669.54" y2="96.26" gradientTransform="translate(-2609.08)" xlink:href="#linear-gradient-3"/><linearGradient id="linear-gradient-9" x1="68.56" y1="76.8" x2="76.29" y2="76.8" gradientUnits="userSpaceOnUse"><stop offset="0" stop-color="#311944"/><stop offset="1" stop-color="#6b3976"/></linearGradient><linearGradient id="linear-gradient-10" x1="68.56" y1="76.8" x2="75.66" y2="76.8" xlink:href="#linear-gradient-9"/><linearGradient id="linear-gradient-11" x1="82.86" y1="82.09" x2="61.6" y2="78.26" gradientUnits="userSpaceOnUse"><stop offset="0" stop-color="#311944"/><stop offset="0.74" stop-color="#5c3169"/><stop offset="1" stop-color="#6b3976"/></linearGradient><linearGradient id="linear-gradient-12" x1="51.88" y1="26.46" x2="65.87" y2="97.8" gradientTransform="matrix(1, 0, 0, 1, 0, 0)" xlink:href="#linear-gradient-2"/><linearGradient id="linear-gradient-13" x1="50.43" y1="46.01" x2="57.62" y2="57.55" gradientTransform="matrix(1, 0, 0, 1, 0, 0)" xlink:href="#linear-gradient-2"/><linearGradient id="linear-gradient-14" x1="57.15" y1="52.17" x2="78.7" y2="52.17" gradientUnits="userSpaceOnUse"><stop offset="0" stop-color="#ff9085"/><stop offset="1" stop-color="#fb6fbb"/></linearGradient><linearGradient id="linear-gradient-15" x1="3388.27" y1="-309.21" x2="3396.52" y2="-298.84" gradientTransform="translate(-3287.99 -540.44) rotate(14.93)" xlink:href="#linear-gradient-2"/><linearGradient id="linear-gradient-16" x1="69.38" y1="43.32" x2="68.24" y2="32.77" xlink:href="#linear-gradient-9"/><linearGradient id="linear-gradient-17" x1="3387.25" y1="-311.52" x2="3396.45" y2="-299.94" gradientTransform="translate(-3287.99 -540.44) rotate(14.93)" xlink:href="#linear-gradient-2"/><linearGradient id="linear-gradient-18" x1="56.69" y1="50.31" x2="69.9" y2="62.94" xlink:href="#linear-gradient-14"/><linearGradient id="linear-gradient-19" x1="50.88" y1="47.07" x2="62.66" y2="47.07" xlink:href="#linear-gradient-14"/><linearGradient id="linear-gradient-20" x1="18.4" y1="0.15" x2="30.66" y2="19.86" gradientTransform="matrix(1, 0, 0, 1, 0, 0)" xlink:href="#linear-gradient"/><linearGradient id="linear-gradient-21" x1="18.86" y1="-0.22" x2="31.12" y2="19.49" xlink:href="#linear-gradient-14"/><linearGradient id="linear-gradient-22" x1="2414.08" y1="-290.99" x2="2411.46" y2="-299.62" gradientTransform="matrix(0.99, 0.12, -0.12, 0.99, -2411.85, 101.3)" xlink:href="#linear-gradient-3"/><linearGradient id="linear-gradient-23" x1="2411.82" y1="-292.67" x2="2411.82" y2="-306.53" gradientTransform="matrix(0.99, 0.12, -0.12, 0.99, -2411.85, 101.3)" xlink:href="#linear-gradient-2"/><linearGradient id="linear-gradient-24" x1="2416.93" y1="-292.67" x2="2416.93" y2="-306.53" gradientTransform="matrix(0.99, 0.12, -0.12, 0.99, -2411.85, 101.3)" xlink:href="#linear-gradient-2"/><linearGradient id="linear-gradient-25" x1="2417.89" y1="-292.15" x2="2415.27" y2="-300.77" gradientTransform="matrix(0.99, 0.12, -0.12, 0.99, -2411.85, 101.3)" xlink:href="#linear-gradient-3"/><linearGradient id="linear-gradient-26" x1="2410.63" y1="-322.58" x2="2409.35" y2="-293.94" gradientTransform="matrix(0.99, 0.12, -0.12, 0.99, -2411.85, 101.3)" xlink:href="#linear-gradient"/><linearGradient id="linear-gradient-28" x1="2430.03" y1="-310.39" x2="2406.69" y2="-311.45" gradientTransform="matrix(0.99, 0.12, -0.12, 0.99, -2411.85, 101.3)" xlink:href="#linear-gradient"/><linearGradient id="linear-gradient-29" x1="2395.49" y1="-304.28" x2="2412.04" y2="-339.64" gradientTransform="matrix(0.99, 0.12, -0.12, 0.99, -2411.85, 101.3)" gradientUnits="userSpaceOnUse"><stop offset="0.49" stop-color="#ebeff2"/><stop offset="1" stop-color="#fff"/></linearGradient><linearGradient id="linear-gradient-30" x1="0.3" y1="61.73" x2="28.66" y2="61.73" gradientUnits="userSpaceOnUse"><stop offset="0" stop-color="#aa80f9"/><stop offset="1" stop-color="#6165d7"/></linearGradient><linearGradient id="linear-gradient-31" x1="2413.73" y1="-350.15" x2="2410.74" y2="-345.32" gradientTransform="matrix(0.99, 0.12, -0.12, 0.99, -2411.85, 101.3)" xlink:href="#linear-gradient-2"/><linearGradient id="linear-gradient-32" x1="2424.84" y1="-342.67" x2="2418.83" y2="-332.94" gradientTransform="matrix(0.99, 0.12, -0.12, 0.99, -2411.85, 101.3)" xlink:href="#linear-gradient-3"/><linearGradient id="linear-gradient-33" x1="2465.31" y1="-300.65" x2="2460.11" y2="-290.89" gradientTransform="matrix(0.99, 0.1, -0.1, 0.99, -2447.53, 89.25)" xlink:href="#linear-gradient-2"/><linearGradient id="linear-gradient-34" x1="2424.23" y1="-343.3" x2="2425.66" y2="-346.27" gradientTransform="matrix(0.99, 0.12, -0.12, 0.99, -2411.85, 101.3)" xlink:href="#linear-gradient-30"/><linearGradient id="linear-gradient-35" x1="2426.12" y1="-338.83" x2="2424.67" y2="-336.49" gradientTransform="matrix(0.99, 0.12, -0.12, 0.99, -2411.85, 101.3)" xlink:href="#linear-gradient-2"/><linearGradient id="linear-gradient-36" x1="2402.92" y1="-300.8" x2="2419.46" y2="-336.16" xlink:href="#linear-gradient-29"/><linearGradient id="linear-gradient-37" x1="8.73" y1="57.27" x2="15.26" y2="41.07" gradientTransform="matrix(1, 0, 0, 1, 0, 0)" xlink:href="#linear-gradient-3"/></defs><g class="cls-1"><g id="Layer_2" data-name="Layer 2"><g id="Layer_1-2" data-name="Layer 1"><path class="cls-2" d="M48.27,1.65,71.9.38a3.25,3.25,0,0,1,3.53,3.2v13A3.57,3.57,0,0,1,71.9,20l-7.72.19-3.61,4.26a.63.63,0,0,1-.86.09h0l-3.47-4.16-8,.2A3.15,3.15,0,0,1,45,17.43V5.07A3.47,3.47,0,0,1,48.27,1.65Z"/><path class="cls-3" d="M47.8,1.28,71.43,0A3.24,3.24,0,0,1,75,3.21V16.15a3.57,3.57,0,0,1-3.53,3.48l-7.72.19L60.19,24a.63.63,0,0,1-1,0l-3.46-4-8,.19a3.14,3.14,0,0,1-3.25-3.16V4.69A3.45,3.45,0,0,1,47.8,1.28Z"/><path class="cls-4" d="M51.64,9a4.87,4.87,0,0,1,3.87-4.77,3.86,3.86,0,0,1,3.9,2.23,4.38,4.38,0,0,1,3.94-2.62c2.14.06,3.87,2,4,4.5a5.63,5.63,0,0,1-1.49,4.19l-6,4.91a.69.69,0,0,1-.86,0L53.07,13A5.15,5.15,0,0,1,51.64,9Z"/><path class="cls-5" d="M71.23,93.59c0-.29,1-.56,1.47-.17.23.2.39.59.26.77s.15.18,0,.18C72.28,94.38,71.18,93.88,71.23,93.59Z"/><path class="cls-6" d="M72.27,93.59l1,0a4.8,4.8,0,0,1,.07-2.3l-1.06,0s0,.49.09,1.21A4.89,4.89,0,0,1,72.27,93.59Z"/><path class="cls-7" d="M72.14,93.58s1.17-.27,1.3,0,.22.85-.52.83S72.07,93.77,72.14,93.58Z"/><path class="cls-8" d="M58.8,95.71c.09-.28,1.07-.41,1.48.05.2.22.3.64.15.79s.12.2-.07.18C59.73,96.65,58.71,96,58.8,95.71Z"/><path class="cls-9" d="M60,96l1,.19c-.25-.66.4-2.27.4-2.27l-1.06-.12s0,.49-.08,1.21A4.86,4.86,0,0,1,60,96Z"/><path class="cls-10" d="M59.7,95.83s1.2-.1,1.29.14.1.88-.63.76S59.61,96,59.7,95.83Z"/><path class="cls-11" d="M68.56,62c.27,4.49.63,9.16,1.13,14,.57,5.6,1.27,11,2,16a3,3,0,0,0,1.86,0s1.13-1.85,2-6.76a25.08,25.08,0,0,0,.59-3.65c0-2.78-.94-3.58-1.12-6-.17-2.3.55-3,1-5.56a19.46,19.46,0,0,0-.6-8.66Z"/><path class="cls-12" d="M68.56,62c.27,4.49.63,9.16,1.13,14,.57,5.6,1.27,11,2,16a3,3,0,0,0,1.86,0c0-.47,0-1.18-.14-2-.27-2.27-.68-2.92-.72-4.31-.06-1.79.59-1.84.72-3.6.19-2.72-1.3-3.37-1.44-5.75s1.43-3.35,2.63-6.48a16.49,16.49,0,0,0,.8-8.5Z"/><path class="cls-13" d="M63.73,61.89A94,94,0,0,0,60,94.6l1.26.35a13,13,0,0,0,3.64-6.61c.49-2.54-.25-3.4.4-6.26.15-.66.36-1.37,2.78-6.12,2.31-4.54,2.79-5.2,3.18-6.83a15,15,0,0,0,.2-5.77Z"/><path class="cls-14" d="M53.32,52.27l-4.14-9.7a.85.85,0,0,1,.58-1.16l7.59-1.84a.85.85,0,0,1,1,.51l3.81,9.32a.86.86,0,0,1-.54,1.14l-7.25,2.21A.85.85,0,0,1,53.32,52.27Z"/><path class="cls-15" d="M53.51,51.81l-3.87-9.06a.81.81,0,0,1,.55-1.09l7.08-1.72a.81.81,0,0,1,.93.47l3.55,8.71a.79.79,0,0,1-.5,1.06l-6.78,2.08A.8.8,0,0,1,53.51,51.81Z"/><path class="cls-16" d="M51.12,49.14,51,48l-.66-1.25a1.19,1.19,0,0,1-.14-.56V45l.8,1.83a6,6,0,0,1,.72-.57c.2-.1.17.3,0,.45s.08,1.37-.07,1.49l0,.75Z"/><path class="cls-17" d="M57.43,41.86A6.47,6.47,0,0,1,60.07,39c1.62-1.06,2.67-.87,6.41-1.44,5-.76,5.58-1.48,7.25-.89a7.63,7.63,0,0,1,3.88,3.67c2.65,4.62-.45,7,.35,16.15.32,3.76,1.16,7-.85,8.95a6,6,0,0,1-1.84,1,16.92,16.92,0,0,1-9.14,1.19c-2.25-.22-3.38-.34-4-1.14-.95-1.27,0-2.88.2-5.66.12-2-.33-3.59-1.24-6.76C59,46.77,56.25,44.76,57.43,41.86Z"/><path class="cls-18" d="M65.77,34.87A2.42,2.42,0,0,1,66,33.15c.37-.67.46-.76.64-.88l.24-.15h0a2.71,2.71,0,0,1,.79,0c.35.07.71,1.47.61,3.45a1.85,1.85,0,0,0,0,.23c.05.31.1.62.13.92s.44.28.72.26c1.17-.07,1.74,0,1.79.2s-1.29,1.39-3,1.63c-2.29,0-4.16-.23-4-.59a21.53,21.53,0,0,0,2.37-1.08,1.53,1.53,0,0,0,.45-1.17C66.75,35.83,65.94,35.47,65.77,34.87Z"/><path class="cls-19" d="M66.2,31.56a2.36,2.36,0,0,0,.43,1.37,1,1,0,0,1,.23.24l0,.07c.14.39-.48.85-.36,1s.5,0,.55.07-.3.31-.24.43.25,0,.38.15,0,.13.12.34a2.18,2.18,0,0,0,.14.33c.21.36.82.49.93.35s0-.08,0-.21a1,1,0,0,1,.12-.27c.12-.21.42-.35.72-.57a2.05,2.05,0,0,0,.76-.87.23.23,0,0,0,0-.09,2.26,2.26,0,0,0,0-1.52c-.34-.69-1.11-.36-1.74-1s-.29-1.85-.69-2S66.19,30.42,66.2,31.56Z"/><path class="cls-20" d="M66.75,34.11c.15-.2.41,0,.42.26a.49.49,0,0,1-.51.49C66.41,34.81,66.55,34.39,66.75,34.11Z"/><path class="cls-21" d="M68.07,65.07C67.41,63.76,69,62,68,60c-.9-1.7-2.53-1.32-3.28-2.88-.91-1.89,1.06-3.29,1-6.16-.08-3.43-3-6.86-4.77-6.56-1.12.19-1.27,1.87-2.06,3.7a41.9,41.9,0,0,1,2.26,6c.91,3.17,1.36,4.76,1.24,6.76-.17,2.78-1.15,4.39-.2,5.66.6.8,1.73.92,4,1.14a16.92,16.92,0,0,0,9.14-1.19c.48-.21.83-.37,1.12-.53C70.54,66.86,68.59,66.11,68.07,65.07Z"/><path class="cls-22" d="M50.9,48.92,52,48.45c.62.63,1.4,1.24,2.06,1,1-.29.74-2.11,1.94-5.29,1.36-3.61,2.9-4.53,3.68-4.87a1.62,1.62,0,0,1,1.09-.22c1.66.4,2.21,4.72,1.74,8-.26,1.82-.77,5.38-3.7,7.08a5.63,5.63,0,0,1-5,.52A5.68,5.68,0,0,1,50.9,48.92Z"/><path class="cls-23" d="M37.68,3.6,14.73,2.37a3.15,3.15,0,0,0-3.43,3.1V18.05a3.46,3.46,0,0,0,3.43,3.37l7.5.19,3.5,4.13a.62.62,0,0,0,.84.1h0l3.37-4,7.74.19a3.06,3.06,0,0,0,3.16-3.07v-12A3.37,3.37,0,0,0,37.68,3.6Z"/><path class="cls-24" d="M38.13,3.24,15.19,2a3.16,3.16,0,0,0-3.43,3.11V17.68a3.47,3.47,0,0,0,3.43,3.38l7.5.18,3.42,4a.61.61,0,0,0,.93,0l3.36-3.86,7.73.19a3.05,3.05,0,0,0,3.16-3.06v-12A3.35,3.35,0,0,0,38.13,3.24Z"/><path class="cls-4" d="M34.41,10.71a4.74,4.74,0,0,0-3.76-4.63,3.74,3.74,0,0,0-3.78,2.17A4.23,4.23,0,0,0,23,5.71a4.32,4.32,0,0,0-3.9,4.36,5.45,5.45,0,0,0,1.45,4.07l5.86,4.77a.65.65,0,0,0,.83,0L33,14.58A5,5,0,0,0,34.41,10.71Z"/><path class="cls-25" d="M17.54,92c-.32.51-.27.75-.22.86.17.33.66.09,1.87.36a2.17,2.17,0,0,0,.76.06c.3,0,.66-.16.65-.24s-.05,0-.07,0c-.33-.11-2.38-1-2.38-1Z"/><path class="cls-26" d="M17.5,90.82l.06,1.23s.49.42.67,0a6.5,6.5,0,0,0,.22-1.18Z"/><polygon class="cls-27" points="23.6 92.06 22.94 93.41 22.21 93.21 22.52 91.93 23.6 92.06"/><path class="cls-28" d="M22.63,94.15c-.32-.46-.64-.46-.68-.76a.62.62,0,0,1,.37-.59c.32-.12.65.16.73.22.52.42.31,1,.81,1.27a1.46,1.46,0,0,1,.42.31c.07.08.24.28.18.39s-.4.09-.71.06a1.46,1.46,0,0,1-.74-.2C22.78,94.66,22.87,94.51,22.63,94.15Z"/><path class="cls-29" d="M16.56,61.35a39.6,39.6,0,0,0,.25,7.31,34,34,0,0,1,.52,4c0,3.23-1,3.6-1.52,7.21a22.06,22.06,0,0,0,.58,8.49,21.65,21.65,0,0,0,.82,2.6c.34.35.91.27,1.51.2.52-3.61,1.08-7,1.6-10.61Q22,72.49,23.78,64.4Z"/><path class="cls-30" d="M18.72,91.2c.52-3.61,1.08-7,1.6-10.61Q22,72.49,23.78,64.4l-7.22-3.05,0,.56c3.22,3.3,3.71,5.75,3.54,7.37-.21,2-1.37,2.87-1.4,5.75,0,2.06.57,2.47.42,4.32-.2,2.38-1.33,3.63-1.94,5a8.61,8.61,0,0,0-.22,5.91c.1.29.2.54.28.77C17.55,91.35,18.12,91.27,18.72,91.2Z"/><path class="cls-31" d="M20.71,64.45a41.61,41.61,0,0,1,2.8,7.26A10.29,10.29,0,0,1,24,74.87a9.78,9.78,0,0,1-.77,3.54,19,19,0,0,0-1.25,3.5,20,20,0,0,0,.29,10.27l1.28.6a72.67,72.67,0,0,0,4-11.36A40,40,0,0,0,29,74.09a31.36,31.36,0,0,0-1.65-12.73Z"/><path class="cls-32" d="M23.74,40.31c2.75.71,4.84,1.39,5.67,2.93s-.82,2.67-1.53,6c-1.1,5.14,1.73,7.33.44,12.49a13.73,13.73,0,0,1-1.63,3.83,14.44,14.44,0,0,1-4.49,2.07c-2.92.75-4.27.06-8.11,0C7.82,67.46,6.74,69.2,4,67.85S-.56,63.28.16,62c.42-.75,1.52-.17,3.24-1C5.61,60,5.4,58.28,7.23,57c2.63-1.87,4.82.42,7.08-1.21s2.9-6.05,2.21-8.76c-.45-1.77-.3-3.65-.6-5.45a1.2,1.2,0,0,1,.08-.64c.44-1,2.31-1,3.73-1.05A16.42,16.42,0,0,1,23.74,40.31Z"/><path class="cls-33" d="M4.5,65.9c.91-.5.58-2.17,1.93-2.93s2.1.42,3.89,0c2.3-.5,2.37-2.67,4.57-3.19,1.59-.36,2,.66,4.21.89A8.88,8.88,0,0,0,26.36,58a8,8,0,0,0,1.72-2.94,12.91,12.91,0,0,1,.24,6.66,13.73,13.73,0,0,1-1.63,3.83,14.44,14.44,0,0,1-4.49,2.07c-2.92.75-4.27.06-8.11,0C7.82,67.46,6.74,69.2,4,67.85A8.17,8.17,0,0,1,.3,64C2.62,66,3.84,66.27,4.5,65.9Z"/><path class="cls-34" d="M25.75,35.61a7.71,7.71,0,0,1,.62,2.53c0,1-1.18.85-1.18.85v.64A1.38,1.38,0,0,0,26,40.91l.44.21s-3,.39-4.52-.89h.46a1.39,1.39,0,0,0,1.35-1.14l.05-.27S23.52,35.61,25.75,35.61Z"/><path class="cls-35" d="M28.76,52.1l4.49-7.75a.28.28,0,0,1,.28-.12l6.28,1.47a.25.25,0,0,1,.15.38l-5.21,8.33a.24.24,0,0,1-.29.1l-5.53-2Z"/><path class="cls-36" d="M29.87,51.22,33.5,45a.21.21,0,0,1,.22-.1L38.81,46a.2.2,0,0,1,.13.3l-4.22,6.75a.19.19,0,0,1-.24.08L30,51.56Z"/><path class="cls-37" d="M34.57,45l.29-.51a.18.18,0,0,1,.2-.08l2.62.59a.18.18,0,0,1,.12.27l-.32.54a.2.2,0,0,1-.21.09l-2.58-.63A.19.19,0,0,1,34.57,45Z"/><path class="cls-4" d="M38,47.17h0l-4.61-1.09A.11.11,0,0,1,33.3,46a.12.12,0,0,1,.13-.08L38,47a.1.1,0,0,1,.08.12A.11.11,0,0,1,38,47.17Z"/><path class="cls-4" d="M37.71,47.62h0l-4.58-1.13a.11.11,0,0,1,.05-.21l4.58,1.13a.11.11,0,0,1,.08.13A.1.1,0,0,1,37.71,47.62Z"/><path class="cls-4" d="M35.3,48.12h0l-2.49-.68a.11.11,0,0,1-.07-.13.11.11,0,0,1,.13-.08l2.49.69a.1.1,0,0,1,.07.13A.11.11,0,0,1,35.3,48.12Z"/><path class="cls-38" d="M36,52.37s1.11-.6,1.28-1.08a6.78,6.78,0,0,0,.24-1.43l-.74,1.26a.7.7,0,0,1-.36-.56c-.08-.45-.34-.07-.29.26A8.92,8.92,0,0,1,36,52.37Z"/><path class="cls-39" d="M29,42.7a7.53,7.53,0,0,1,1.91,2.09c1.8,2.9.69,5.68,2.3,6.88a3.38,3.38,0,0,0,2.92.28l.56.38s.34,3.78-4.17,3.45-6.18-6.17-6.18-6.17Z"/><path class="cls-40" d="M25.17,37c-.15,0-.26-.23-.37-.18s-.12.33-.05.54a.7.7,0,0,0,.26.31,1.84,1.84,0,0,0-.4.73,2.61,2.61,0,0,0,.28,1.7c.6,1.61-.74,4-2.09,5.12-1.1.93-1.54.48-2.21,1.25C19.28,48,20.76,49.89,20,52c-1.2,3.21-6.47,3.76-6.69,3.78l-.23,0c-2.36.17-5.93.44-8.26-1.67a7.28,7.28,0,0,1-2.06-6.32A7.07,7.07,0,0,1,5.1,43.42a6.52,6.52,0,0,1,4.38-1.63c1.2.09,1.41.54,2.35.35a4.89,4.89,0,0,0,2.69-2c1-1.23.66-1.54,1.34-2.12C17.21,36.86,18.59,38,20,37s.73-2.53,2.08-3.37,3.85-.32,4.28.89C26.75,35.52,25.64,37.08,25.17,37Z"/></g></g></g></svg>