<svg xmlns="http://www.w3.org/2000/svg" xmlns:xlink="http://www.w3.org/1999/xlink" viewBox="0 0 132.06 92.73"><defs><style>.cls-1{fill:none;}.cls-2{isolation:isolate;}.cls-3{fill:url(#linear-gradient);}.cls-4{fill:url(#linear-gradient-2);}.cls-13,.cls-5,.cls-7{fill:#fff;}.cls-5{opacity:0.8;}.cls-6{fill:url(#linear-gradient-3);}.cls-19,.cls-7{mix-blend-mode:soft-light;}.cls-8{clip-path:url(#clip-path);}.cls-9{fill:url(#linear-gradient-4);}.cls-10{fill:url(#linear-gradient-5);}.cls-11{fill:url(#linear-gradient-6);}.cls-12{fill:url(#linear-gradient-7);}.cls-14{fill:url(#linear-gradient-8);}.cls-15{fill:url(#linear-gradient-9);}.cls-16{fill:url(#linear-gradient-10);}.cls-17{fill:url(#linear-gradient-11);}.cls-18{fill:url(#linear-gradient-12);}.cls-19,.cls-22{opacity:0.3;}.cls-20{fill:url(#linear-gradient-13);}.cls-21{fill:url(#linear-gradient-14);}.cls-22{mix-blend-mode:multiply;}.cls-23{fill:url(#linear-gradient-15);}</style><linearGradient id="linear-gradient" x1="4.79" y1="67.59" x2="134.72" y2="67.59" gradientUnits="userSpaceOnUse"><stop offset="0" stop-color="#444b8c"/><stop offset="1" stop-color="#26264f"/></linearGradient><linearGradient id="linear-gradient-2" x1="21.84" y1="64.17" x2="136.85" y2="64.17" gradientUnits="userSpaceOnUse"><stop offset="0" stop-color="#aa80f9"/><stop offset="1" stop-color="#6165d7"/></linearGradient><linearGradient id="linear-gradient-3" x1="-3932.96" y1="65.46" x2="-3887.4" y2="65.46" gradientTransform="matrix(-1, 0, 0, 1, -3880.47, 0)" xlink:href="#linear-gradient-2"/><clipPath id="clip-path" transform="translate(-4.79)"><path class="cls-1" d="M68.81,45.67c-5.25-20.79-41.57-13-56.15-8.45S11.11,61.7,6.19,71.59,0,102.32,0,102.32H0q0,.63,0,1.26C.06,116.12,9.44,125.73,20.76,125c9.82-.66,17.77-8.92,19.37-19.2L55.77,89S74.05,66.47,68.81,45.67Z"/></clipPath><linearGradient id="linear-gradient-4" x1="28.6" y1="83.65" x2="22.85" y2="136.77" gradientTransform="translate(80.64 12.59) rotate(60)" gradientUnits="userSpaceOnUse"><stop offset="0" stop-color="#ffc444"/><stop offset="1" stop-color="#f36f56"/></linearGradient><linearGradient id="linear-gradient-5" x1="55.32" y1="38.05" x2="-2.3" y2="101.68" gradientTransform="translate(5.9 -3.3) rotate(5.61)" xlink:href="#linear-gradient-4"/><linearGradient id="linear-gradient-6" x1="3.61" y1="58.22" x2="39.38" y2="48.26" gradientTransform="matrix(1, -0.1, 0.1, 1, 10.83, 9.61)" xlink:href="#linear-gradient-4"/><linearGradient id="linear-gradient-7" x1="4.2" y1="52.03" x2="38.2" y2="52.03" gradientTransform="matrix(1, 0, 0, 1, 15.81, 7.29)" xlink:href="#linear-gradient"/><linearGradient id="linear-gradient-8" x1="21.62" y1="58.02" x2="46.38" y2="58.02" gradientTransform="matrix(1, -0.1, 0.1, 1, 10.83, 9.61)" xlink:href="#linear-gradient"/><linearGradient id="linear-gradient-9" x1="-3.95" y1="38.73" x2="46.18" y2="38.73" gradientTransform="matrix(1, -0.1, 0.1, 1, 10.83, 9.61)" xlink:href="#linear-gradient"/><linearGradient id="linear-gradient-10" x1="-6.82" y1="48.66" x2="0.95" y2="48.66" gradientTransform="matrix(1, -0.1, 0.1, 1, 10.83, 9.61)" xlink:href="#linear-gradient"/><linearGradient id="linear-gradient-11" x1="20.75" y1="67.85" x2="31.54" y2="67.85" gradientTransform="matrix(1, -0.1, 0.1, 1, 10.83, 9.61)" xlink:href="#linear-gradient"/><linearGradient id="linear-gradient-12" x1="41.88" y1="48.66" x2="49.65" y2="48.66" gradientTransform="matrix(1, -0.1, 0.1, 1, 10.83, 9.61)" xlink:href="#linear-gradient"/><linearGradient id="linear-gradient-13" x1="82.2" y1="37.1" x2="74.41" y2="6.74" gradientUnits="userSpaceOnUse"><stop offset="0" stop-color="#311944"/><stop offset="1" stop-color="#a03976"/></linearGradient><linearGradient id="linear-gradient-14" x1="-1517.41" y1="18.5" x2="-1468.81" y2="18.5" gradientTransform="matrix(-1, 0, 0, 1, -1413.02, 0)" xlink:href="#linear-gradient-4"/><linearGradient id="linear-gradient-15" x1="-1511" y1="5.72" x2="-1468.82" y2="61.26" gradientTransform="matrix(-1, 0, 0, 1, -1413.02, 0)" xlink:href="#linear-gradient-4"/></defs><g class="cls-2"><g id="Layer_2" data-name="Layer 2"><g id="Layer_1-2" data-name="Layer 1"><path class="cls-3" d="M133.94,52.65c-.12-2.95-2.21-5.26-4.68-5.17L44.84,50.59a21.06,21.06,0,0,0-17.12-8.13c-12.62.38-23,12-22.93,26.09s10.66,25,23.45,24.13a22.81,22.81,0,0,0,16.14-8.77l86-5.45c2.5-.16,4.42-2.71,4.3-5.7Z" transform="translate(-4.79)"/><path class="cls-4" d="M27.14,49.18l104.25-3.84c2.48-.09,4.57,2.23,4.68,5.18l.77,20.11c.12,3-1.8,5.54-4.29,5.7L27.47,83c-3,.19-5.42-2.32-5.45-5.61l-.18-22.12A5.83,5.83,0,0,1,27.14,49.18Z" transform="translate(-4.79)"/><polygon class="cls-5" points="55.92 58.47 122.89 55.43 122.77 52.11 55.86 54.95 55.92 58.47"/><polygon class="cls-5" points="56.03 64.33 123.09 60.98 122.97 57.65 55.96 60.81 56.03 64.33"/><polygon class="cls-5" points="87.49 68.5 123.29 66.54 123.17 63.2 87.39 65.06 87.49 68.5"/><path class="cls-6" d="M6.92,66.42C7,80.6,17.59,91.43,30.37,90.54c12.54-.87,22.34-12.71,22.11-26.38S42.23,40,29.85,40.33C17.23,40.71,6.86,52.35,6.92,66.42Z" transform="translate(-4.79)"/><path class="cls-7" d="M9.58,66.29C9.64,78.83,19,88.44,30.34,87.68,41.47,86.93,50.19,76.43,50,64.29S40.88,42.77,29.88,43.13C18.69,43.49,9.52,53.82,9.58,66.29Z" transform="translate(-4.79)"/><g class="cls-8"><ellipse class="cls-9" cx="29.42" cy="76.13" rx="6.07" ry="5.09" transform="translate(-56.01 63.54) rotate(-60)"/><ellipse class="cls-10" cx="36.68" cy="58.64" rx="23.85" ry="18.29" transform="translate(-10.34 3.86) rotate(-5.61)"/><path class="cls-11" d="M55.29,54.25l.45,4.56a7.85,7.85,0,0,1-7,8.57l-2.92.28A7.79,7.79,0,0,1,44.7,69.4a7.59,7.59,0,0,1-5.15,2.75l-3,.3a7.63,7.63,0,0,1-7-3.19l-2.17.21a7.84,7.84,0,0,1-8.57-7l-.45-4.55A3.54,3.54,0,0,1,21.51,54l29.91-2.94A3.54,3.54,0,0,1,55.29,54.25Z" transform="translate(-4.79)"/><path class="cls-12" d="M24.34,53.74H49.68A4.33,4.33,0,0,1,54,58.08v0a6.82,6.82,0,0,1-6.82,6.82H26.83A6.82,6.82,0,0,1,20,58.08v0a4.33,4.33,0,0,1,4.33-4.33Z" transform="translate(-10.41 3.9) rotate(-5.61)"/><path class="cls-13" d="M32.34,60.42a1.72,1.72,0,0,0,.25-1.06c-.12-1.21-1.5-2.07-3.09-1.91s-2.77,1.26-2.65,2.47a1.8,1.8,0,0,0,.45,1Z" transform="translate(-4.79)"/><path class="cls-13" d="M46.8,59a1.75,1.75,0,0,0,.25-1.07c-.12-1.21-1.5-2.07-3.09-1.91s-2.77,1.26-2.65,2.47a1.73,1.73,0,0,0,.45,1Z" transform="translate(-4.79)"/><path class="cls-14" d="M39.12,76.53,39,75.1A23.31,23.31,0,0,0,60.12,51.68h1.44A24.87,24.87,0,0,1,39.12,76.53Z" transform="translate(-4.79)"/><path class="cls-15" d="M13.74,59.75l-1.84.17c-.14-.77-.25-1.55-.33-2.31l.4,0a25.08,25.08,0,0,1,49.1-4.82l.4,0c.07.75.11,1.54.12,2.33l-1.83.18a23.22,23.22,0,0,0-46,4.52Z" transform="translate(-4.79)"/><path class="cls-16" d="M13.59,67.81h0a3.89,3.89,0,0,1-4.25-3.49L8.24,53.09a3.89,3.89,0,0,1,3.49-4.25h0A3.88,3.88,0,0,1,16,52.33l1.11,11.23A3.89,3.89,0,0,1,13.59,67.81Z" transform="translate(-4.79)"/><path class="cls-17" d="M38.21,75.89h0a2.21,2.21,0,0,1,1.61-2.68l6.24-1.56a2.22,2.22,0,0,1,2.68,1.61h0A2.21,2.21,0,0,1,47.13,76l-6.24,1.56A2.22,2.22,0,0,1,38.21,75.89Z" transform="translate(-4.79)"/><path class="cls-18" d="M62.06,63.05h0a3.89,3.89,0,0,1-4.25-3.49l-1.1-11.23a3.88,3.88,0,0,1,3.49-4.24h0a3.88,3.88,0,0,1,4.24,3.48l1.11,11.24A3.89,3.89,0,0,1,62.06,63.05Z" transform="translate(-4.79)"/><g class="cls-19"><path class="cls-13" d="M51.19,61.62c-8.36.28-17.73-2.45-20.73-10.72A12.87,12.87,0,0,1,31.37,41C20.07,43.42,12.05,51.84,13,61c1,10,12.41,17.16,25.52,15.87C48,75.9,55.78,70.79,59,64.22a10.51,10.51,0,0,1-4.3-.75C53.52,63,52.47,61.68,51.19,61.62Z" transform="translate(-4.79)"/></g></g><path class="cls-20" d="M103,18a1,1,0,0,1,0-.17l0-.39c0-.06,0-.13,0-.19s0-.27,0-.41,0-.09,0-.14-.05-.36-.08-.53a.5.5,0,0,1,0-.12l-.09-.42,0-.18-.09-.37a1,1,0,0,1,0-.17c0-.16-.09-.31-.13-.47l0-.05c-.05-.18-.11-.35-.17-.52a.58.58,0,0,0,0-.14c0-.13-.09-.26-.14-.38l-.06-.17c0-.12-.11-.25-.16-.38a.5.5,0,0,1,0-.13l-.24-.5,0,0c-.07-.15-.15-.3-.23-.44s0-.1-.07-.14l-.2-.36c0-.05-.05-.1-.08-.14l-.25-.42,0-.06-.31-.48-.07-.09c-.08-.13-.17-.25-.26-.38a1.47,1.47,0,0,1-.1-.13l-.26-.35L99.55,9c-.24-.31-.49-.6-.75-.9L98.71,8l-.31-.33-.11-.11-.36-.37a.12.12,0,0,1-.05,0l-.45-.42-.05,0L97,6.3l-.11-.1-.37-.31-.1-.08c-.32-.26-.65-.51-1-.76L95.32,5l-.43-.3-.12-.08-.45-.29-.08-.05q-.54-.34-1.11-.66L93,3.54l-.47-.25-.12-.06A29.67,29.67,0,0,0,78.72,0C65.3,0,54.42,8.28,54.42,18.5a15.26,15.26,0,0,0,3.52,9.6l-2.35,6.23a.81.81,0,0,0,.91,1.08l3-.55h.08l.41-.08.21,0,.34-.07.19,0,.52-.09.2,0,.32-.06.24,0,.32-.06.22,0,.37-.06.15,0,.49-.09.2,0L64,34l.19,0,.32-.06.16,0,.45-.07A29.81,29.81,0,0,0,78.72,37C92.14,37,103,28.72,103,18.5,103,18.32,103,18.13,103,18Z" transform="translate(-4.79)"/><path class="cls-21" d="M59.32,28.1a15.27,15.27,0,0,1-3.53-9.6C55.79,8.28,66.67,0,80.1,0s24.3,8.28,24.3,18.5S93.52,37,80.1,37a29.85,29.85,0,0,1-13.59-3.15C64,34.28,60,35,57.87,35.41a.81.81,0,0,1-.9-1.08Z" transform="translate(-4.79)"/><g class="cls-22"><path class="cls-23" d="M66.8,22.42C72.25,20.13,78.24,25,82,21.59s-.3-10.12,3.32-14.91C87,4.39,89.92,3.31,93.23,2.94,100,6.23,104.4,12,104.4,18.5,104.4,28.72,93.52,37,80.1,37a29.85,29.85,0,0,1-13.59-3.15c-2,.34-4.92.87-7.09,1.27C61,26.84,64,23.61,66.8,22.42Z" transform="translate(-4.79)"/></g><path class="cls-13" d="M74.85,18A3,3,0,0,1,72,21.29a3.32,3.32,0,0,1-3.62-2.8,3,3,0,0,1,2.92-3.38A3.31,3.31,0,0,1,74.85,18Z" transform="translate(-4.79)"/><path class="cls-13" d="M85,17.24a3,3,0,0,1-2.68,3.13,2.91,2.91,0,0,1-3.15-2.69A3,3,0,0,1,82,14.47,2.9,2.9,0,0,1,85,17.24Z" transform="translate(-4.79)"/><path class="cls-13" d="M94.25,16.55a2.92,2.92,0,0,1-2.54,3A2.57,2.57,0,0,1,89,17a2.91,2.91,0,0,1,2.61-3.06A2.58,2.58,0,0,1,94.25,16.55Z" transform="translate(-4.79)"/></g></g></g></svg>