<?xml version="1.0" encoding="utf-8"?>
<!-- Generator: Adobe Illustrator 21.1.0, SVG Export Plug-In . SVG Version: 6.00 Build 0)  -->
<svg version="1.1" id="Layer_1" xmlns="http://www.w3.org/2000/svg" xmlns:xlink="http://www.w3.org/1999/xlink" x="0px" y="0px"
	 viewBox="0 0 595.3 841.9" style="enable-background:new 0 0 595.3 841.9;" xml:space="preserve">
<style type="text/css">
	.st0{fill:#615FAA;}
	.st1{fill:url(#SVGID_1_);}
	.st2{fill:url(#SVGID_2_);}
	.st3{fill:#FFFFFF;}
</style>
<g>
	<g>
		<path class="st0" d="M218.8,311.5l161.3-3.5c11.5-0.1,20.8,9.2,20.7,20.8L400,473.6c-0.1,11.5-9.4,20.9-20.9,20.9l-8.7,0
			l-0.2,35.6c0,5.3-6.4,7.9-11.7,2l-32.9-37.6l-107-0.4c-10.2,0-18.5-8.8-18.5-19.6l0-143C200.2,320.6,208.5,311.6,218.8,311.5z"/>
		
			<linearGradient id="SVGID_1_" gradientUnits="userSpaceOnUse" x1="-1139.4601" y1="532.9031" x2="-1013.307" y2="370.8833" gradientTransform="matrix(-1 0 0 1 -738.666 0)">
			<stop  offset="0" style="stop-color:#6F60AA"/>
			<stop  offset="2.938405e-02" style="stop-color:#745FA9"/>
			<stop  offset="0.1298" style="stop-color:#7F5DA8"/>
			<stop  offset="0.2581" style="stop-color:#855CA7"/>
			<stop  offset="0.5075" style="stop-color:#875CA6"/>
			<stop  offset="1" style="stop-color:#875CA6"/>
		</linearGradient>
		<path class="st1" d="M213.4,490.2l160.8,0.4c11.5,0,20.8-9.4,20.9-20.9l0.8-145c0.1-11.6-9.2-21-20.8-20.8l-161.6,3.4
			c-10.3,0.1-18.6,9.1-18.6,20.1v143.2C194.9,481.5,203.2,490.3,213.4,490.2z"/>
		<linearGradient id="SVGID_2_" gradientUnits="userSpaceOnUse" x1="253.7428" y1="502.5586" x2="336.5491" y2="292.3425">
			<stop  offset="0" style="stop-color:#6F5FAA"/>
			<stop  offset="2.938405e-02" style="stop-color:#745FA9"/>
			<stop  offset="0.1298" style="stop-color:#7F5DA7"/>
			<stop  offset="0.2581" style="stop-color:#855CA7"/>
			<stop  offset="0.5075" style="stop-color:#875CA6"/>
			<stop  offset="0.7369" style="stop-color:#7E5DA8"/>
			<stop  offset="1" style="stop-color:#6F5FAA"/>
		</linearGradient>
		<path class="st2" d="M378.9,309.9l-168.8,3.1c-5.5,0.1-9.9,4.9-9.9,10.7l0,150.4c0,5.8,4.4,10.5,9.9,10.5l105.3,0l39.9,45.5
			c3.5,4,10.1,1.5,10.1-3.8l0.2-41.6l12.5,0c6.1,0,11.1-5,11.1-11.1L390,321C390,314.8,385.1,309.8,378.9,309.9z"/>
	</g>
	<g>
		<g>
			<path class="st3" d="M323.7,398.7c0,6.5,5.5,11.9,12.5,11.8c6.9,0,12.6-5.3,12.6-11.9c0-6.6-5.6-11.9-12.5-11.9
				C329.4,386.8,323.8,392.2,323.7,398.7z"/>
			<path class="st3" d="M281.2,398.8c0,6.5,5.5,11.8,12.4,11.8c6.9,0,12.4-5.3,12.5-11.8c0-6.5-5.5-11.8-12.4-11.8
				C286.8,387,281.3,392.3,281.2,398.8z"/>
			<path class="st3" d="M239.1,398.9c0,6.5,5.5,11.7,12.3,11.7c6.8,0,12.3-5.3,12.3-11.8c0-6.5-5.5-11.8-12.3-11.7
				C244.6,387.1,239.1,392.4,239.1,398.9z"/>
		</g>
	</g>
</g>
</svg>
