<svg xmlns="http://www.w3.org/2000/svg" xmlns:xlink="http://www.w3.org/1999/xlink" viewBox="0 0 32.85 36.94"><defs><style>.cls-1{fill:url(#linear-gradient);}.cls-2{fill:url(#linear-gradient-2);}.cls-3{fill:url(#linear-gradient-3);}.cls-4{fill:url(#linear-gradient-4);}.cls-5{fill:#fff;}</style><linearGradient id="linear-gradient" x1="-1425.84" y1="49.35" x2="-1315.45" y2="-92.42" gradientTransform="matrix(-1, 0, 0, 1, -1382.69, 0)" gradientUnits="userSpaceOnUse"><stop offset="0" stop-color="#ab316d"/><stop offset="1" stop-color="#792d3d"/></linearGradient><linearGradient id="linear-gradient-2" x1="-1415.53" y1="36.52" x2="-1395.41" y2="10.68" gradientTransform="matrix(-1, 0, 0, 1, -1382.69, 0)" gradientUnits="userSpaceOnUse"><stop offset="0" stop-color="#fcb148"/><stop offset="0.05" stop-color="#fdba46"/><stop offset="0.14" stop-color="#ffc244"/><stop offset="0.32" stop-color="#ffc444"/><stop offset="0.48" stop-color="#fdb946"/><stop offset="0.78" stop-color="#f99c4d"/><stop offset="0.87" stop-color="#f8924f"/><stop offset="1" stop-color="#f8924f"/></linearGradient><linearGradient id="linear-gradient-3" x1="-1393.8" y1="27.32" x2="-1406.41" y2="-4.77" xlink:href="#linear-gradient-2"/><linearGradient id="linear-gradient-4" x1="-1413.86" y1="38.95" x2="-1386.4" y2="3.69" xlink:href="#linear-gradient-2"/></defs><g id="Layer_2" data-name="Layer 2"><g id="Layer_1-2" data-name="Layer 1"><path class="cls-1" d="M3.81,1.2,29.54.64A3.27,3.27,0,0,1,32.85,4l-.14,23.1a3.35,3.35,0,0,1-3.32,3.33H28l0,5.68c0,.85-1,1.27-1.87.33l-5.25-6L3.79,30.34A3,3,0,0,1,.84,27.21V4.4A3.12,3.12,0,0,1,3.81,1.2Z"/><path class="cls-2" d="M3,29.71l25.65.07a3.34,3.34,0,0,0,3.33-3.33l.13-23.13A3.28,3.28,0,0,0,28.75,0L3,.54a3.12,3.12,0,0,0-3,3.2V26.58A3,3,0,0,0,3,29.71Z"/><path class="cls-3" d="M31,27.06l.14-24.34A1.75,1.75,0,0,0,29.35,1l-26.92.5A1.66,1.66,0,0,0,.84,3.16v24a1.62,1.62,0,0,0,1.57,1.67h26.8A1.77,1.77,0,0,0,31,27.06Z"/><path class="cls-4" d="M27.18,35.47l0-6.86-8.19,0,6.54,7.45A.92.92,0,0,0,27.18,35.47Z"/><path class="cls-5" d="M20.55,15.12a1.93,1.93,0,0,0,2,1.89,2,2,0,0,0,2-1.9,1.92,1.92,0,0,0-2-1.89A2,2,0,0,0,20.55,15.12Z"/><path class="cls-5" d="M13.77,15.13a1.92,1.92,0,0,0,2,1.88,2,2,0,0,0,2-1.89,2,2,0,0,0-4,0Z"/><path class="cls-5" d="M7.05,15.14a2,2,0,0,0,3.92,0,1.91,1.91,0,0,0-2-1.87A1.92,1.92,0,0,0,7.05,15.14Z"/></g></g></svg>