<?xml version="1.0" encoding="utf-8"?>
<!-- Generator: Adobe Illustrator 21.1.0, SVG Export Plug-In . SVG Version: 6.00 Build 0)  -->
<svg version="1.1" id="Layer_1" xmlns="http://www.w3.org/2000/svg" xmlns:xlink="http://www.w3.org/1999/xlink" x="0px" y="0px"
	 viewBox="0 0 595.3 841.9" style="enable-background:new 0 0 595.3 841.9;" xml:space="preserve">
<style type="text/css">
	.st0{fill:url(#SVGID_1_);}
	.st1{fill:url(#SVGID_2_);}
	.st2{opacity:0.33;}
	.st3{fill:url(#SVGID_3_);}
	.st4{fill:#FFFFFF;}
</style>
<g>
	<linearGradient id="SVGID_1_" gradientUnits="userSpaceOnUse" x1="309.468" y1="499.7306" x2="276.4227" y2="370.921">
		<stop  offset="0" style="stop-color:#382A6A"/>
		<stop  offset="1" style="stop-color:#382A6A"/>
	</linearGradient>
	<path class="st0" d="M397.7,418.5c0-0.2,0-0.5,0-0.7c0-0.6-0.1-1.1-0.1-1.7c0-0.3,0-0.5-0.1-0.8c-0.1-0.6-0.1-1.2-0.2-1.7
		c0-0.2,0-0.4-0.1-0.6c-0.1-0.8-0.2-1.5-0.3-2.3c0-0.2-0.1-0.3-0.1-0.5c-0.1-0.6-0.2-1.2-0.3-1.8c-0.1-0.2-0.1-0.5-0.2-0.7
		c-0.1-0.5-0.2-1.1-0.4-1.6c-0.1-0.2-0.1-0.5-0.2-0.7c-0.2-0.7-0.4-1.3-0.6-2c0-0.1,0-0.2-0.1-0.2c-0.2-0.7-0.5-1.5-0.7-2.2
		c-0.1-0.2-0.1-0.4-0.2-0.6c-0.2-0.5-0.4-1.1-0.6-1.6c-0.1-0.2-0.2-0.5-0.3-0.7c-0.2-0.5-0.4-1.1-0.7-1.6c-0.1-0.2-0.2-0.4-0.2-0.6
		c-0.3-0.7-0.6-1.4-1-2.1c0-0.1-0.1-0.1-0.1-0.2c-0.3-0.6-0.6-1.3-0.9-1.9c-0.1-0.2-0.2-0.4-0.3-0.6c-0.3-0.5-0.6-1-0.8-1.5
		c-0.1-0.2-0.2-0.4-0.3-0.6c-0.3-0.6-0.7-1.2-1.1-1.7c-0.1-0.1-0.1-0.2-0.2-0.3c-0.4-0.7-0.9-1.4-1.3-2c-0.1-0.1-0.2-0.3-0.3-0.4
		c-0.4-0.5-0.7-1.1-1.1-1.6c-0.1-0.2-0.3-0.4-0.4-0.6c-0.4-0.5-0.7-1-1.1-1.5c-0.1-0.2-0.2-0.3-0.4-0.5c-1-1.3-2.1-2.5-3.2-3.8
		c-0.1-0.1-0.3-0.3-0.4-0.4c-0.4-0.5-0.9-1-1.3-1.4c-0.1-0.2-0.3-0.3-0.4-0.5c-0.5-0.5-1-1-1.5-1.5c-0.1-0.1-0.2-0.2-0.2-0.2
		c-0.6-0.6-1.2-1.2-1.9-1.8c-0.1-0.1-0.1-0.1-0.2-0.2c-0.6-0.5-1.1-1-1.7-1.5c-0.2-0.1-0.3-0.3-0.5-0.4c-0.5-0.4-1.1-0.9-1.6-1.3
		c-0.1-0.1-0.3-0.2-0.4-0.3c-1.4-1.1-2.8-2.2-4.2-3.2c-0.1-0.1-0.2-0.2-0.4-0.3c-0.6-0.4-1.2-0.8-1.8-1.3c-0.2-0.1-0.3-0.2-0.5-0.3
		c-0.6-0.4-1.3-0.8-1.9-1.3c-0.1-0.1-0.2-0.1-0.3-0.2c-1.5-1-3.1-1.9-4.7-2.8c-0.2-0.1-0.3-0.2-0.5-0.3c-0.7-0.4-1.3-0.7-2-1.1
		c-0.2-0.1-0.3-0.2-0.5-0.3c-16.6-8.6-36.6-13.7-58.2-13.7c-56.9,0-103.1,35.1-103.1,78.5c0,14.9,5.5,28.9,14.9,40.7l-9.9,26.4
		c-0.9,2.5,1.2,5.1,3.8,4.6c3.3-0.6,7.7-1.4,12.5-2.3c0.1,0,0.2,0,0.3-0.1c0.6-0.1,1.2-0.2,1.7-0.3c0.3-0.1,0.6-0.1,0.9-0.2
		c0.5-0.1,1-0.2,1.4-0.3c0.3,0,0.5-0.1,0.8-0.1c0.7-0.1,1.5-0.3,2.2-0.4c0.3-0.1,0.6-0.1,0.9-0.2c0.5-0.1,0.9-0.2,1.4-0.2
		c0.3-0.1,0.7-0.1,1-0.2c0.4-0.1,0.9-0.2,1.3-0.2c0.3-0.1,0.6-0.1,1-0.2c0.5-0.1,1-0.2,1.5-0.3c0.2,0,0.4-0.1,0.7-0.1
		c0.7-0.1,1.4-0.2,2-0.4c0.3-0.1,0.6-0.1,0.9-0.2c0.4-0.1,0.9-0.2,1.3-0.2c0.3,0,0.5-0.1,0.8-0.1c0.5-0.1,0.9-0.2,1.3-0.2
		c0.2,0,0.5-0.1,0.7-0.1c0.7-0.1,1.3-0.2,1.9-0.3c16.5,8.5,36.3,13.4,57.6,13.4c56.9,0,103.1-35.1,103.1-78.5
		C397.8,420,397.8,419.3,397.7,418.5z"/>
	<g>
		<g>
			
				<linearGradient id="SVGID_2_" gradientUnits="userSpaceOnUse" x1="-1747.3209" y1="420.8233" x2="-1541.0935" y2="420.8233" gradientTransform="matrix(-1 0 0 1 -1343.6758 0)">
				<stop  offset="0" style="stop-color:#EF4E92"/>
				<stop  offset="0.9964" style="stop-color:#D064A6"/>
			</linearGradient>
			<path class="st1" d="M212.4,461.5c-9.5-11.9-14.9-25.8-14.9-40.7c0-43.4,46.2-78.5,103.1-78.5c56.9,0,103.1,35.1,103.1,78.5
				c0,43.4-46.2,78.5-103.1,78.5c-21.3,0-41.2-4.9-57.6-13.4c-10.9,1.9-27.8,5-36.7,6.6c-2.6,0.5-4.8-2.1-3.8-4.6L212.4,461.5z"/>
			<g class="st2">
				
					<linearGradient id="SVGID_3_" gradientUnits="userSpaceOnUse" x1="-1720.1005" y1="366.5742" x2="-1541.1394" y2="602.2622" gradientTransform="matrix(-1 0 0 1 -1343.6758 0)">
					<stop  offset="0" style="stop-color:#D7549F"/>
					<stop  offset="0.9964" style="stop-color:#EE3C7A"/>
				</linearGradient>
				<path class="st3" d="M244.1,437.4c23.1-9.7,48.5,10.8,64.4-3.5c16-14.4-1.3-42.9,14.1-63.3c7.3-9.7,19.6-14.3,33.7-15.9
					c28.5,14,47.4,38.3,47.4,66.1c0,43.4-46.2,78.5-103.1,78.5c-21.3,0-41.2-4.9-57.6-13.4c-8.6,1.5-20.9,3.7-30.1,5.4
					C219.6,456.2,232.1,442.5,244.1,437.4z"/>
			</g>
		</g>
		<g>
			<g>
				<path class="st4" d="M278.3,418.7c0.7,7.1-4.6,13.3-12,13.9c-7.5,0.7-14.4-4.6-15.4-11.9c-0.9-7.4,4.7-13.9,12.4-14.3
					C270.9,406,277.6,411.5,278.3,418.7z"/>
			</g>
			<g>
				<path class="st4" d="M318.9,418.7c0.7,7.1-4.6,13.3-12,13.9c-7.5,0.7-14.4-4.6-15.4-11.9c-0.9-7.4,4.7-13.9,12.4-14.3
					C311.6,406,318.2,411.5,318.9,418.7z"/>
			</g>
			<g>
				<path class="st4" d="M359.6,418.7c0.7,7.1-4.6,13.3-12,13.9c-7.5,0.7-14.4-4.6-15.4-11.9c-0.9-7.4,4.7-13.9,12.4-14.3
					C352.2,406,358.9,411.5,359.6,418.7z"/>
			</g>
		</g>
	</g>
</g>
</svg>
