<svg xmlns="http://www.w3.org/2000/svg" xmlns:xlink="http://www.w3.org/1999/xlink" viewBox="0 0 33.12 24.52"><defs><style>.cls-1{isolation:isolate;}.cls-2{fill:url(#linear-gradient);}.cls-3{fill:url(#linear-gradient-2);}.cls-4{opacity:0.3;mix-blend-mode:multiply;}.cls-5{fill:url(#linear-gradient-3);}.cls-6{fill:#fff;}</style><linearGradient id="linear-gradient" x1="18.41" y1="24.58" x2="13.25" y2="4.47" gradientUnits="userSpaceOnUse"><stop offset="0" stop-color="#311944"/><stop offset="1" stop-color="#a03976"/></linearGradient><linearGradient id="linear-gradient-2" x1="-1992.71" y1="12.26" x2="-1960.51" y2="12.26" gradientTransform="matrix(-1, 0, 0, 1, -1959.6, 0)" gradientUnits="userSpaceOnUse"><stop offset="0" stop-color="#ffc444"/><stop offset="1" stop-color="#f36f56"/></linearGradient><linearGradient id="linear-gradient-3" x1="-1988.46" y1="3.79" x2="-1960.52" y2="40.59" xlink:href="#linear-gradient-2"/></defs><g class="cls-1"><g id="Layer_2" data-name="Layer 2"><g id="Layer_1-2" data-name="Layer 1"><path class="cls-2" d="M32.2,11.89a.41.41,0,0,1,0-.11,2.28,2.28,0,0,0,0-.26.49.49,0,0,0,0-.12,1.24,1.24,0,0,0,0-.27.28.28,0,0,0,0-.09c0-.12,0-.24,0-.36s0,0,0-.08L32,10.32s0-.08,0-.11L31.92,10l0-.11a2.8,2.8,0,0,0-.09-.31v0a3.38,3.38,0,0,0-.11-.34l0-.1-.09-.25,0-.11a2.6,2.6,0,0,0-.1-.25.36.36,0,0,0,0-.09L31.22,8l0,0a2.1,2.1,0,0,0-.15-.3A.41.41,0,0,0,31,7.61c0-.08-.08-.16-.13-.24l-.05-.09c-.05-.09-.11-.18-.17-.27l0,0-.21-.31a.43.43,0,0,1,0-.07l-.18-.24-.06-.09L30,6,29.91,6c-.16-.2-.33-.4-.5-.59l-.06-.07-.21-.22L29.07,5l-.24-.24,0,0-.3-.28,0,0-.27-.24-.07-.06-.25-.21-.06,0-.66-.5-.06,0-.28-.2-.08,0-.3-.2-.05,0-.74-.44-.07,0-.31-.17-.08,0A19.73,19.73,0,0,0,16.1,0C7.21,0,0,5.49,0,12.26a10.15,10.15,0,0,0,2.33,6.36L.78,22.75a.53.53,0,0,0,.6.71l2-.36h.05L3.66,23l.14,0L4,23l.13,0,.34-.06.14,0,.21,0,.16,0,.21,0,.15,0,.24,0,.1,0L6,22.62l.14,0,.2,0,.13,0,.21,0,.11,0,.29-.05a19.77,19.77,0,0,0,9,2.09C25,24.52,32.2,19,32.2,12.26Z"/><path class="cls-3" d="M3.25,18.62A10.16,10.16,0,0,1,.91,12.26C.91,5.49,8.12,0,17,0S33.12,5.49,33.12,12.26,25.91,24.52,17,24.52a19.73,19.73,0,0,1-9-2.09c-1.7.29-4.34.77-5.73,1a.53.53,0,0,1-.6-.71Z"/><g class="cls-4"><path class="cls-5" d="M8.2,14.85c3.61-1.51,7.58,1.69,10.07-.55s-.2-6.7,2.19-9.88C21.61,2.91,23.52,2.2,25.72,2c4.45,2.18,7.4,6,7.4,10.31C33.12,19,25.91,24.52,17,24.52a19.73,19.73,0,0,1-9-2.09l-4.7.84C4.38,17.78,6.32,15.64,8.2,14.85Z"/></g><path class="cls-6" d="M13.54,11.93a2,2,0,0,1-1.88,2.18,2.22,2.22,0,0,1-2.4-1.86A2,2,0,0,1,11.2,10,2.2,2.2,0,0,1,13.54,11.93Z"/><path class="cls-6" d="M19.89,11.93A2,2,0,0,1,18,14.11a2.22,2.22,0,0,1-2.4-1.86A2,2,0,0,1,17.55,10,2.2,2.2,0,0,1,19.89,11.93Z"/><path class="cls-6" d="M26.24,11.93a2,2,0,0,1-1.88,2.18A2.22,2.22,0,0,1,22,12.25,2,2,0,0,1,23.9,10,2.2,2.2,0,0,1,26.24,11.93Z"/></g></g></g></svg>